<?xml version="1.0" encoding="UTF-8" standalone="no"?>
<!-- Created with Inkscape (http://www.inkscape.org/) -->

<svg
   width="500mm"
   height="600mm"
   viewBox="0 0 499.99998 600"
   version="1.1"
   id="svg1"
   xml:space="preserve"
   sodipodi:docname="chibi.svg"
   inkscape:version="1.4.2 (f4327f4, 2025-05-13)"
   inkscape:export-batch-path="Mila Okta Safitri\Bismillah Project_MICROSTOCK\UNSPLASH PIXABAY WIKIMEDIA CC0"
   inkscape:export-batch-name="chibi"
   xmlns:inkscape="http://www.inkscape.org/namespaces/inkscape"
   xmlns:sodipodi="http://sodipodi.sourceforge.net/DTD/sodipodi-0.dtd"
   xmlns="http://www.w3.org/2000/svg"
   xmlns:svg="http://www.w3.org/2000/svg"><sodipodi:namedview
     id="namedview1"
     pagecolor="#ffffff"
     bordercolor="#666666"
     borderopacity="1.0"
     inkscape:showpageshadow="2"
     inkscape:pageopacity="0.0"
     inkscape:pagecheckerboard="0"
     inkscape:deskcolor="#d1d1d1"
     inkscape:document-units="mm"
     inkscape:zoom="0.24676627"
     inkscape:cx="1864.1121"
     inkscape:cy="1183.306"
     inkscape:window-width="1366"
     inkscape:window-height="705"
     inkscape:window-x="-8"
     inkscape:window-y="-8"
     inkscape:window-maximized="1"
     inkscape:current-layer="svg1"><inkscape:page
       x="0"
       y="0"
       width="499.99997"
       height="600"
       id="page1"
       margin="0"
       bleed="0" /></sodipodi:namedview><defs
     id="defs1" /><g
     inkscape:label="Layer 1"
     inkscape:groupmode="layer"
     id="layer1"
     transform="translate(193.37259,122.86348)"><g
       id="g4"><rect
         style="fill:#ffffff;fill-opacity:1;stroke-width:2.5;stroke-linecap:square;paint-order:fill markers stroke"
         id="rect117"
         width="600"
         height="500"
         x="-122.86348"
         y="-306.62741"
         transform="rotate(90)" /><rect
         style="fill:#adebb1;fill-opacity:1;stroke-width:2.5;stroke-linecap:square;paint-order:fill markers stroke"
         id="rect130"
         width="364.25897"
         height="364.25897"
         x="-44.520451"
         y="-57.038464"
         rx="90.97937"
         ry="90.97937"
         transform="rotate(30)" /><ellipse
         style="fill:#adebb1;fill-opacity:1;stroke-width:2.5;stroke-linecap:square;paint-order:fill markers stroke"
         id="ellipse119"
         cx="70.658676"
         cy="434.07114"
         rx="64.444519"
         ry="27.840958" /><path
         style="fill:#301f1d;fill-opacity:1"
         d="m 102.46196,436.12187 c -0.92465,3.27052 -2.41304,5.12152 -5.11166,6.357 -3.10634,1.42212 -9.41501,3.17562 -14.47508,4.02335 -2.76489,0.46321 -5.68192,1.00598 -6.48229,1.20616 -1.56679,0.39186 -5.33804,0.79213 -9.78958,1.03906 -2.09372,0.11614 -3.42991,0.035 -5.42388,-0.32928 -2.45394,-0.44833 -2.68747,-0.54528 -3.22129,-1.33742 -0.94422,-1.40113 -1.20662,-3.21605 -0.76865,-5.31654 0.6465,-3.10067 1.33428,-4.29177 4.55962,-7.89644 3.59649,-4.01947 8.34334,-9.6224 8.23725,-9.72282 -0.0417,-0.0394 -1.08779,0.15256 -2.32472,0.42665 -4.88428,1.08233 -10.73576,1.85252 -17.99166,2.3681 -4.40791,0.31322 -10.79208,0.263 -12.16254,-0.0957 -1.67059,-0.43722 -2.3915,-1.56287 -2.38373,-3.722 0.0108,-3.0055 1.64834,-5.2456 6.0796,-8.31677 1.38245,-0.95814 4.18042,-3.0017 6.21771,-4.54127 2.03729,-1.53956 4.78782,-3.5398 6.11229,-4.44496 2.58404,-1.76598 2.63467,-1.83762 3.84836,-5.44581 0.34991,-1.04025 0.84103,-1.96473 1.14656,-2.15827 0.77127,-0.48856 4.19522,-1.13343 7.76308,-1.46209 1.69957,-0.15656 4.43486,-0.45015 6.07842,-0.65243 4.04984,-0.49842 4.39187,-0.33539 5.85465,2.79048 0.88358,1.88817 1.34351,3.88527 1.34351,5.83371 v 1.26885 l 1.52136,-0.49805 c 2.33297,-0.76376 8.47571,-1.59113 13.03073,-1.75513 5.19458,-0.18702 5.21644,-0.17572 5.02708,2.59933 -0.26669,3.9083 -0.0981,8.52961 0.34625,9.49365 0.56414,1.22383 1.11502,3.52633 1.61906,6.76709 0.22928,1.47419 0.65726,3.61731 0.95106,4.7625 0.72183,2.81356 0.91001,6.94977 0.39849,8.75903 z"
         id="path21" /><path
         id="path114"
         style="fill:#f4eed7"
         d="m 74.1471,418.23898 c -0.0823,-0.002 -0.22386,0.0376 -0.42117,0.10025 -0.3026,0.096 -1.52299,0.27383 -2.71198,0.39533 -1.18899,0.1215 -3.26295,0.34881 -4.60902,0.50488 -1.34606,0.15607 -3.54872,0.40849 -4.89479,0.5612 -1.34607,0.15272 -4.35239,0.50104 -6.68073,0.7736 -6.91785,0.80983 -12.64321,1.11261 -15.46882,0.81804 -1.90949,-0.19906 -2.55611,-0.18502 -2.72335,0.0594 -0.39534,0.57776 -0.071,3.40066 0.43305,3.76928 0.25204,0.18429 1.40653,0.41885 2.56522,0.52142 2.34716,0.20777 9.88512,-0.0319 12.94494,-0.41186 1.09141,-0.13552 3.65124,-0.42005 5.68854,-0.63201 2.03729,-0.21197 5.54964,-0.76545 7.80521,-1.22989 2.25558,-0.46445 4.35081,-0.83076 4.65605,-0.81391 0.54159,0.0299 0.98159,-0.46912 2.85047,-3.23443 0.60259,-0.89162 0.77673,-1.17515 0.56638,-1.18132 z m 27.0061,16.36541 c -0.0607,0 -0.68577,0.2487 -1.38906,0.55242 -1.10217,0.47597 -3.93093,1.28811 -12.92015,3.70985 -3.17028,0.85409 -20.5217,3.57481 -24.34166,3.81682 -4.07651,0.25827 -4.10104,0.26654 -4.10104,1.35186 0,0.51712 0.18049,1.32017 0.40101,1.7849 0.38438,0.81001 0.50745,0.86313 2.97656,1.27796 2.10462,0.35359 3.22216,0.38844 6.1128,0.19069 3.83821,-0.26258 7.93859,-0.72606 8.27805,-0.93586 0.11689,-0.0722 2.61171,-0.54223 5.54437,-1.04438 6.11756,-1.04748 6.37197,-1.10764 10.81432,-2.5461 5.70094,-1.846 6.99619,-2.74074 8.17108,-5.64462 0.48938,-1.20957 0.72475,-2.51354 0.45372,-2.51354 z" /><path
         id="path113"
         style="fill:#352a29;fill-opacity:1"
         d="m 75.64623,397.18859 -3.39669,0.34106 c -1.86838,0.18773 -4.5283,0.44952 -5.91075,0.58188 -1.38245,0.13236 -3.55207,0.43978 -4.82141,0.68316 l -2.30787,0.44287 -0.64544,2.00659 c -0.35496,1.10381 -0.71224,2.31216 -0.79375,2.68511 -0.10564,0.4834 -0.85294,1.16419 -2.60294,2.3704 -1.35013,0.9306 -4.35963,3.13178 -6.68797,4.89169 -2.32833,1.75991 -5.18583,3.84201 -6.35,4.62711 -1.16416,0.7851 -2.69536,1.96841 -3.40237,2.62929 -1.23995,1.15906 -1.26338,1.20771 -0.66146,1.37666 0.98363,0.27609 7.71649,0.24912 11.20758,-0.0449 1.74625,-0.14709 5.07999,-0.51119 7.40833,-0.80874 2.32833,-0.29756 5.9002,-0.7138 7.9375,-0.92553 2.03729,-0.21173 4.7162,-0.49174 5.95313,-0.62218 1.23693,-0.13045 2.80772,-0.38909 3.49074,-0.57464 1.23664,-0.33595 1.2462,-0.34714 2.2071,-2.6386 1.68604,-4.02068 1.9936,-5.51769 1.87327,-9.10642 -0.0892,-2.66149 -0.21919,-3.45315 -0.80356,-4.89479 -0.38342,-0.94589 -0.92129,-2.01228 -1.19528,-2.36988 z m 22.07617,7.71322 -3.71915,0.17622 c -3.812,0.18062 -8.84289,0.85915 -12.2592,1.65364 -1.69052,0.39315 -1.94314,0.53089 -2.07791,1.12965 -1.19557,5.31177 -3.1892,9.91721 -5.96398,13.77849 -1.82537,2.54011 -6.45596,8.10259 -10.67945,12.82815 -2.47721,2.77169 -3.43851,4.05187 -3.83181,5.10305 -0.28875,0.77177 -0.52503,1.53592 -0.52503,1.69809 0,0.50878 5.08713,0.0325 13.45706,-1.25936 4.313,-0.66571 8.5972,-1.32191 9.52035,-1.4583 3.70259,-0.54704 16.00283,-3.90806 18.64434,-5.09478 l 1.27279,-0.57206 -0.1788,-1.5875 c -0.0985,-0.87313 -0.39089,-2.42093 -0.64957,-3.43959 -0.25868,-1.01864 -0.61958,-2.80457 -0.80151,-3.96875 -0.49221,-3.14957 -1.19969,-6.19875 -1.74976,-7.54062 -0.41878,-1.02157 -0.48606,-1.91877 -0.47336,-6.31848 z" /><path
         style="fill:#301f1d;fill-opacity:1"
         d="m 112.09308,364.75437 c -0.42447,13.79653 -1.68454,26.94132 -4.08346,42.59792 -0.63546,4.14734 -1.28523,8.7244 -1.44392,10.17125 -0.1587,1.44684 -0.33467,2.67676 -0.39106,2.73315 -0.0937,0.0937 -2.22933,0.60333 -6.36608,1.51914 -3.4162,0.75628 -9.19929,1.45145 -12.07451,1.45145 -7.63043,0 -16.42317,-1.98143 -22.05674,-4.97045 -1.96587,-1.04304 -2.26761,-1.50398 -2.64278,-4.03704 l -0.13888,-0.93771 -3.59411,-0.59421 c -1.97677,-0.32682 -4.86324,-1.01643 -6.41438,-1.53248 -5.08352,-1.69122 -12.78062,-5.75383 -13.0986,-6.91358 -0.0696,-0.25377 -0.20735,-0.93765 -0.30617,-1.51973 -0.0988,-0.58209 -0.63698,-2.72521 -1.19593,-4.7625 -2.21488,-8.07289 -5.32268,-22.48212 -6.84789,-31.75 -2.09426,-12.7257 -3.1966,-24.99498 -3.22953,-35.94533 -0.0204,-6.77509 0.18878,-8.06315 1.46771,-9.03864 2.25012,-1.71624 4.63785,-1.91124 10.07139,-0.8225 1.89177,0.37906 5.04693,0.92424 7.01146,1.21152 7.09808,1.03795 9.98616,1.77047 13.68951,3.47215 1.55181,0.71305 2.2706,1.20033 2.49406,1.69077 0.28192,0.61874 0.42385,0.67475 1.39174,0.54924 13.215,-1.71358 21.33913,-1.13051 31.90177,2.28959 4.72128,1.52871 8.13711,2.92372 11.74619,4.79708 3.60891,1.87326 3.67283,1.95851 4.1155,5.48894 0.30684,2.44704 0.30421,14.7923 -0.005,24.85197 z"
         id="path18" /><path
         style="fill:#352a29;fill-opacity:1"
         d="m 62.25124,408.65511 c -0.5615,-4.03957 -1.08466,-9.95515 -2.12754,-24.05699 -0.51118,-6.91224 -1.28187,-16.5563 -1.71263,-21.43125 -0.96942,-10.97098 -1.2775,-15.84792 -1.58779,-25.13541 -0.22656,-6.78118 -0.21107,-7.32056 0.22783,-7.9306 0.41728,-0.58 1.66773,-1.22326 4.09612,-2.10712 0.66887,-0.24345 0.71765,-0.33015 0.40063,-0.71214 -0.71829,-0.86549 -5.20762,-2.52667 -8.85828,-3.27782 -1.36257,-0.28036 -4.2365,-0.76146 -6.38651,-1.0691 -2.15,-0.30765 -5.32445,-0.84672 -7.05433,-1.19796 -4.95808,-1.00667 -7.36582,-0.79569 -8.90681,0.78048 l -0.78024,0.79805 0.001,5.70446 c 0.004,20.14652 3.64971,44.79788 10.29244,69.60133 0.5651,2.11005 1.10306,4.16873 1.19547,4.57483 0.30391,1.33561 5.99037,4.49554 11.5296,6.40693 2.16256,0.74622 8.67653,2.22994 9.85573,2.24489 0.26001,0.003 0.26052,0.012 -0.18492,-3.19258 z"
         id="path110" /><path
         style="fill:#403332;fill-opacity:1"
         d="m 110.76256,340.78939 c -0.15994,-1.58963 -0.40316,-3.10028 -0.5405,-3.35702 -0.13733,-0.25673 -2.0603,-1.35749 -4.27327,-2.44612 -11.77537,-5.79272 -23.98977,-8.13714 -35.93946,-6.89818 -6.71044,0.69574 -7.8454,0.90307 -9.9819,1.8234 l -1.99062,0.8575 0.0584,2.90364 c 0.20067,9.9691 0.67476,17.91418 1.89419,31.74322 0.42345,4.80219 1.07624,13.0175 1.45066,18.25625 1.3334,18.65679 2.84193,32.19284 3.64884,32.74109 2.70637,1.83884 10.03303,4.17383 15.66962,4.99388 5.866,0.85343 13.80307,0.27282 21.21697,-1.55205 l 2.96072,-0.72876 0.17058,-1.32291 c 0.25507,-1.97817 1.06312,-7.54521 1.95861,-13.49375 2.14886,-14.27453 3.32717,-27.6123 3.69314,-41.80417 0.32241,-12.50289 0.32351,-18.54009 0.004,-21.71602 z"
         id="path109" /><path
         id="path91"
         style="fill:#201513;fill-opacity:1"
         d="m 95.87187,-10.882116 c -0.26492,-0.01043 -0.4617,0.03019 -0.59376,0.120923 -0.16336,0.112225 -0.7425,1.09709 -1.28726,2.188497 -0.54475,1.091406 -1.79629,3.055938 -2.78123,4.365625 -8.63688,11.484605 -13.53239,24.626566 -14.8332,39.819791 -0.61239,7.152634 0.35992,15.392785 2.6665,22.593453 1.12189,3.502283 2.23302,5.900156 2.81998,6.08645 0.91376,0.290015 12.58755,-0.315284 14.77068,-0.765844 1.77228,-0.36577 2.28194,-0.594935 3.13211,-1.409217 1.53557,-1.470747 3.09737,-4.976483 4.55889,-10.232967 0.37877,-1.36228 0.48408,-1.519659 0.74104,-1.108976 0.16469,0.263219 0.73706,1.177047 1.27228,2.030884 1.50317,2.398008 1.7744,2.436143 3.31711,0.464571 2.12166,-2.711467 2.98446,-4.084144 4.19664,-6.678145 2.25949,-4.835169 5.45542,-14.988122 7.07967,-22.489584 0.29421,-1.358767 0.14066,-8.061198 -0.22428,-9.789583 -1.3809,-6.540187 -4.05817,-12.694167 -6.80578,-15.641939 -2.33475,-2.504841 -4.15601,-3.763274 -7.77214,-5.371765 -1.72999,-0.769518 -4.3957,-1.975127 -5.92367,-2.678907 -2.12898,-0.98061 -3.53882,-1.471974 -4.33358,-1.503267 z M -4.99898,-1.450134 c -1.618,-0.06562 -3.33563,0.688196 -5.36866,2.252576 -3.98014,3.062655 -7.80348,8.347648 -10.30635,14.246159 -2.0757,4.891769 -2.4237,6.262434 -2.60036,10.245369 -0.17048,3.843567 0.12524,6.131613 1.24024,9.599414 1.07449,3.341801 2.40688,5.883644 5.03276,9.601481 3.60224,5.100191 6.71442,7.778122 9.04648,7.784022 1.15278,0.0029 1.14816,0.01757 1.39785,-4.627625 C -6.1896,40.815709 -3.87931,33.514813 0.76915,24.50022 1.78218,22.535688 2.90132,20.452096 3.25582,19.870012 3.61032,19.287929 4.07645,18.275898 4.29193,17.621054 5.01151,15.434266 4.41671,10.507523 2.96849,6.659966 1.92131,3.877865 1.29535,2.811624 -0.22873,1.213786 -1.86275,-0.499321 -3.38097,-1.384511 -4.99898,-1.450134 Z" /><path
         id="path92"
         style="fill:#201a19;fill-opacity:1"
         d="m 96.54211,-9.430008 c -0.64166,-0.02513 -0.92818,0.583643 -1.66553,2.092895 -0.60596,1.240332 -1.6293,2.868461 -2.27428,3.618384 -4.73912,5.51019 -10.04875,16.179361 -12.26023,24.636222 -3.20234,12.245958 -3.53303,22.808054 -1.03818,33.145264 0.81423,3.373686 2.47687,8.191213 3.0024,8.699727 0.21938,0.212276 1.89423,0.231543 5.99291,0.06873 6.55937,-0.260558 9.56285,-0.721196 10.51822,-1.613338 1.41142,-1.318018 2.64258,-4.167768 4.06694,-9.412862 0.46234,-1.702534 0.95629,-3.244247 1.09761,-3.426148 0.60062,-0.773093 1.18949,-0.3042 2.49235,1.984375 0.72488,1.273307 1.44958,2.315104 1.61024,2.315104 0.59641,0 2.82703,-3.273652 4.32687,-6.35 2.0481,-4.200899 5.50912,-14.785744 6.87761,-21.034375 0.72567,-3.313475 0.54408,-9.23123 -0.38964,-12.7 -1.11122,-4.1282 -1.71793,-5.809972 -3.15019,-8.73125 -1.20431,-2.456325 -1.63673,-3.043608 -3.73001,-5.069974 -2.51824,-2.437743 -3.50629,-3.022781 -9.30951,-5.513876 -1.60578,-0.689297 -3.44764,-1.523212 -4.09329,-1.8526 -1.02981,-0.525369 -1.63526,-0.839088 -2.07429,-0.856278 z m -101.7049,9.275402 c -3.1676,-0.119082 -9.61495,6.169769 -12.75065,12.436967 -3.6548,7.304674 -4.65272,11.975934 -3.83542,17.953427 0.60339,4.413011 2.35832,8.447298 5.84254,13.430704 2.62656,3.756716 4.12106,5.35065 6.05182,6.453353 1.69492,0.96801 1.83524,0.859987 1.84124,-1.416968 0.0171,-6.709566 3.37173,-17.49024 7.97005,-25.611356 2.51443,-4.440737 3.28939,-6.178437 3.38429,-7.593852 0.0149,-0.222098 -0.098,-1.399754 -0.25063,-2.616894 C 2.80765,10.625377 1.56804,6.328296 0.71799,4.65647 -0.49833,2.264291 -3.37252,-0.087306 -5.16279,-0.154606 Z" /><path
         style="fill:#a26944;fill-opacity:1"
         d="m 118.03439,17.091887 c -0.25762,2.095573 -1.54124,7.173674 -2.40769,9.524999 -1.5698,4.260045 -2.57305,5.901817 -5.19503,8.501425 -2.64977,2.627166 -4.50593,3.713559 -7.29892,4.271984 l -1.7029,0.340473 -1.09763,5.19238 c -1.19682,5.661643 -2.50476,9.688115 -4.03656,12.426554 -0.79546,1.422057 -1.59732,2.28766 -4.16672,4.497916 -4.39565,3.781243 -5.60406,4.708174 -13.75163,10.548422 -3.92906,2.816386 -8.92969,6.42113 -11.1125,8.010541 -4.28804,3.12233 -5.22514,3.652556 -10.05417,5.688809 -5.32042,2.24346 -5.86999,2.342694 -9.99627,1.804992 C 41.06234,87.098699 35.74691,85.644983 28.50335,82.783107 19.7843,79.338275 13.76084,75.178699 12.49501,71.728342 12.22807,71.000738 11.42248,68.917144 10.70481,67.098134 9.98714,65.279124 8.99174,62.659749 8.49282,61.277301 7.6799,59.024795 6.64281,56.483619 3.36376,48.709593 2.81135,47.399906 1.09058,43.604068 -0.46015,40.274397 -4.43943,31.730261 -6.05797,27.43062 -7.36127,21.941655 -9.04042,14.869794 -10.21723,4.793428 -9.60722,2.710799 -8.50323,-1.058356 -3.47604,-7.55927 1.28089,-11.369153 c 9.59552,-7.685176 24.59787,-12.902438 43.36205,-15.079718 3.14618,-0.365064 5.31221,-0.417656 12.03854,-0.292297 11.16591,0.208098 17.72268,0.957896 25.13541,2.874354 1.74625,0.451468 3.63021,0.875987 4.18658,0.943375 0.85053,0.103017 1.19995,0.360026 2.19468,1.614239 2.14142,2.700027 3.5487,5.233478 4.96848,8.94447 2.67823,7.000329 4.27546,12.482537 5.03616,17.285784 l 0.31427,1.984375 0.84736,-1.764275 c 1.65207,-3.439726 4.41308,-5.127273 8.08538,-4.941831 1.62102,0.08186 2.1447,0.237193 3.43401,1.018601 4.54017,2.75163 6.96772,6.960933 7.17105,12.434379 0.0514,1.382448 0.0421,2.930261 -0.0205,3.439584 z"
         id="path2" /><path
         style="fill:#f9d4b9;fill-opacity:1"
         d="m 116.17336,10.162217 c -1.0636,-3.582758 -3.63812,-6.708673 -6.66761,-8.095617 -2.63645,-1.207008 -6.10846,-0.371967 -7.82821,1.882732 -1.58564,2.078891 -2.52744,5.668485 -2.53449,9.660101 -0.004,2.490039 -0.18997,3.056286 -0.9537,2.910196 -0.45244,-0.08655 -0.51277,-0.466033 -0.6666,-4.193221 -0.26526,-6.42701 -1.31558,-11.812067 -3.65413,-18.734951 -2.53036,-7.490736 -4.34679,-11.314126 -6.53621,-13.758041 -0.94028,-1.049572 -1.23875,-1.194829 -3.92802,-1.911632 -8.50312,-2.266443 -18.69092,-3.428975 -30.03021,-3.426755 -13.02942,0.0026 -29.93111,3.659245 -40.87812,8.844011 -9.21306,4.363527 -16.0208,10.380339 -19.77889,17.480972 -1.08352,2.047235 -1.11846,2.189408 -1.06505,4.334186 0.11617,4.664481 1.26522,12.466417 2.5812,17.526089 1.37677,5.293404 2.93406,9.291664 7.09814,18.224098 2.62517,5.631286 7.63803,17.413313 8.38658,19.711458 0.1896,0.582083 1.21964,3.312653 2.28898,6.067932 1.06934,2.75528 1.94425,5.128261 1.94425,5.273292 0,0.474934 3.26178,3.356247 5.42396,4.791287 2.72403,1.80794 4.94517,2.905316 9.525,4.705903 7.71052,3.031442 13.72427,4.622745 19.56629,5.177458 3.15395,0.299474 3.66392,0.178549 9.00871,-2.136201 4.3546,-1.885915 4.54711,-2.009913 17.06562,-10.99196 10.10236,-7.248457 13.56707,-9.903323 17.69759,-13.560959 2.17844,-1.929041 2.59448,-2.44201 3.38176,-4.169576 1.74123,-3.820879 3.21055,-9.364261 4.69969,-17.730766 0.39494,-2.21893 0.7854,-2.824665 1.33823,-2.076037 0.22408,0.303434 0.30284,0.830231 0.20983,1.403375 -0.14567,0.897689 -0.13232,0.913832 0.61565,0.744449 3.63311,-0.822744 4.35612,-1.247469 7.27107,-4.271267 2.96021,-3.070745 4.44485,-6.114425 5.93828,-12.174172 1.24165,-5.038065 1.38455,-8.460764 0.48041,-11.506384 z"
         id="path93" /><path
         id="path30"
         style="fill:#28201f;fill-opacity:1"
         d="m 47.975547,2.0458828 c -1.88922,-0.03906 -4.12871,0.10304 -5.52938,0.450102 -2.43481,0.6033 -6.23177,2.18053 -8.05377,3.346049 -2.67536,1.711408 -4.85162,4.0374965 -5.3542,5.7221312 l -0.19327,0.648539 0.76223,-0.501262 c 1.22275,-0.803537 7.61034,-3.8767652 10.28722,-4.9495672 0.7276,-0.291599 2.69214,-0.988827 4.36563,-1.54926 1.67349,-0.560432 3.96544,-1.333787 5.09323,-1.718758 1.12779,-0.384972 2.05052,-0.75082 2.05052,-0.81287 0,-0.37602 -1.539,-0.596047 -3.42821,-0.635104 z M 5.0711868,15.269882 c -2.11753,0.131086 -4.22952,0.552239 -5.54127,1.213362 -1.6522,0.832713 -3.06533,2.1731 -2.6882,2.550232 0.28484,0.284837 0.63192,0.262958 9.186,-0.58291 2.39347,-0.236678 6.0515402,-0.918458 6.5370702,-1.21853 0.42751,-0.264214 -0.36391,-0.856715 -1.91978,-1.437122 -1.3333102,-0.49738 -3.4562902,-0.656119 -5.5738202,-0.525032 z" /><path
         id="path97"
         style="fill:#28201f;fill-opacity:1"
         d="m 55.30897,21.937069 c -4.2645,0.09409 -8.60571,2.695196 -10.5115,6.502446 -2.94051,5.874312 -1.81911,12.437345 2.91093,17.036169 3.47936,3.382843 9.06244,4.311688 13.43535,2.235006 3.40468,-1.616877 6.32608,-5.328765 7.02283,-8.92297 1.52608,-7.872331 -3.55669,-15.574694 -11.04222,-16.733345 -0.59877,-0.09268 -1.20618,-0.130746 -1.81539,-0.117306 z M 12.61545,33.930136 c -1.05585,-0.0342 -2.07762,0.192592 -3.02979,0.691947 -2.88236,1.511625 -4.47713,5.725588 -3.87108,10.228833 0.59366,4.41126 2.26421,7.840173 5.3082,10.895976 2.29275,2.301642 4.04718,3.149162 6.51899,3.149162 3.12059,0 5.19994,-1.774235 6.35723,-5.423959 0.47353,-1.493274 0.44874,-5.464683 -0.047,-7.523571 -0.61145,-2.539177 -2.59321,-6.409891 -4.15891,-8.123019 -2.26761,-2.481123 -4.75474,-3.820121 -7.07761,-3.895369 z" /><path
         id="path29"
         style="fill:#28201f;fill-opacity:1"
         d="m 48.31508,16.67967 c -2.60521,-0.04384 -5.03211,0.282987 -6.98149,1.012341 -2.61692,0.979115 -5.47455,4.183009 -6.73447,7.550443 -0.69616,1.860643 -1.18887,4.875563 -0.95136,5.821867 0.17947,0.715071 0.22547,0.671756 1.1622,-1.100191 1.41593,-2.678419 2.45007,-4.08011 4.22197,-5.720581 1.96085,-1.8154 2.89708,-2.262253 5.51594,-2.634981 6.12908,-0.872321 13.63854,0.989401 22.71696,5.632214 1.16417,0.595369 2.41432,1.283345 2.77812,1.529106 0.36381,0.245761 1.10883,0.716196 1.65572,1.045414 l 0.99425,0.59893 -0.2775,-0.730705 C 71.30425,26.760928 66.32127,22.290255 61.44399,19.839683 57.49467,17.855355 52.65709,16.752734 48.31508,16.67967 Z M 8.19143,30.470559 c -1.88969,0.03364 -3.93561,0.470441 -5.45961,1.208195 -1.59302,0.771169 -3.4941,2.780844 -4.43074,4.683435 -1.02975,2.091722 -1.1119,4.437309 -0.2465,7.037813 0.82137,2.46822 1.20514,2.691062 1.60817,0.933793 0.80755,-3.521101 1.58442,-5.1322 3.33778,-6.923091 1.5495,-1.582668 2.54942,-2.020883 5.03897,-2.209168 2.50354,-0.189342 5.38119,0.288906 8.47752,1.409733 1.36828,0.495296 2.60405,0.900721 2.74609,0.900721 0.53539,0 -0.69427,-1.784872 -2.41846,-3.51038 -2.10234,-2.103944 -3.89472,-3.001532 -6.84093,-3.426665 -0.57011,-0.08227 -1.18239,-0.115598 -1.81229,-0.104386 z" /><path
         id="path101"
         style="fill:#4f5e85;fill-opacity:1"
         d="m 62.00675,38.245635 c -4.38008,-0.01521 -10.58138,1.753245 -12.0711,3.641121 -0.86961,1.10204 -0.61862,2.86004 0.54726,3.833358 2.54416,2.123961 7.66063,2.292833 10.95437,0.361218 1.63328,-0.957835 3.52374,-3.023102 4.36459,-4.767668 L 66.561,39.739083 65.75174,39.141704 c -0.44526,-0.328496 -1.34448,-0.677612 -1.99833,-0.775663 -0.53235,-0.07983 -1.12093,-0.118236 -1.74666,-0.120406 z m -43.0692,11.876794 c -1.3126,0.0546 -2.91563,0.332164 -4.48242,0.819071 -3.30296,1.026454 -4.03969,2.59069 -2.06189,4.377511 3.3219,3.00114 7.31988,2.975752 9.2444,-0.05891 0.83447,-1.315822 0.90201,-1.739373 0.5302,-3.341915 -0.13074,-0.563495 -0.35189,-1.137883 -0.49093,-1.276925 -0.40489,-0.404892 -1.42677,-0.57343 -2.73936,-0.518832 z" /><path
         id="path102"
         style="fill:#fffcee;fill-opacity:1;stroke-width:0.999995"
         d="m 57.275421,23.387541 c -1.025565,0.05572 -0.762544,1.920875 -0.56534,2.745569 0.67465,2.821378 5.163991,6.833692 7.943701,6.833692 0.54004,0 1.190716,-0.189182 1.445906,-0.42013 0.42374,-0.383466 0.430792,-0.51444 0.07958,-1.509985 -0.21155,-0.599583 -0.751113,-1.660713 -1.198893,-2.358513 -1.01771,-1.585958 -3.04538,-3.427995 -4.60437,-4.18269 -0.90269,-0.588762 -1.840101,-0.923049 -2.877861,-1.09399 -0.08023,-0.01321 -0.154354,-0.01767 -0.222725,-0.01395 z M 14.522475,35.702035 c -0.1959,0.0065 -0.370685,0.07481 -0.606165,0.201021 -0.90768,0.486542 -1.103711,1.402962 -0.659391,3.084567 0.46919,1.775708 2.155265,3.80918 4.015775,4.842598 1.67774,0.931893 2.382549,0.861279 2.905249,-0.289905 0.55226,-1.216282 0.502836,-1.593539 -0.409794,-3.10627 -1.21168,-2.008427 -3.058476,-3.953474 -4.215246,-4.439522 -0.49196,-0.206715 -0.778568,-0.300807 -1.030428,-0.292489 z" /><path
         id="path4"
         style="fill:#a26944;fill-opacity:1"
         d="m 50.833437,64.250163 c -0.01509,-4.51e-4 -0.03086,-4.26e-4 -0.04703,5.17e-4 -0.43119,0.02515 -1.247128,0.546815 -2.531628,1.597835 -1.0914,0.893026 -2.499252,1.845224 -3.128492,2.115634 -0.81585,0.350605 -1.118532,0.623662 -1.055232,0.952396 0.2268,1.177694 1.814968,0.552452 4.931998,-1.941483 1.36161,-1.089423 2.162142,-1.918627 2.162142,-2.240174 0,-0.314692 -0.105399,-0.477951 -0.331762,-0.484725 z m -13.022978,3.610116 c -0.0419,-6.32e-4 -0.0733,0.0024 -0.0925,0.0088 -0.17111,0.05704 -0.311092,0.278656 -0.311092,0.492993 0,0.753071 3.840427,1.992006 4.906677,1.582849 0.48897,-0.187637 0.404953,-0.698001 -0.160197,-0.974617 -0.69405,-0.339705 -3.715037,-1.100532 -4.342887,-1.11001 z" /><path
         style="fill:#a26944;fill-opacity:1"
         d="m 30.27587,55.090245 c -0.10154,0.0045 -0.17606,0.03396 -0.22892,0.08682 -0.48672,0.486715 -0.0473,1.065109 1.34565,1.770952 1.45355,0.736566 2.29358,0.852494 2.47685,0.341581 0.17706,-0.493598 0.0977,-0.561096 -1.79007,-1.519287 -0.94946,-0.481922 -1.49887,-0.693592 -1.80351,-0.680062 z"
         id="path27" /><path
         id="path88"
         style="fill:#201513;fill-opacity:1"
         d="m 68.13816,-21.702644 c -7.67724,0.360747 -14.8997,2.115534 -16.15199,4.299479 -0.85734,1.495182 -1.13732,4.681547 -0.78134,8.894031 0.5779,6.838825 2.0032,11.817472 4.7165,16.472896 1.3333,2.287657 3.0771,4.624665 3.72329,4.990393 0.78004,0.441488 1.30323,-0.603826 1.63763,-3.270601 0.17335,-1.382448 0.6895,-4.030572 1.1467,-5.884912 l 0.83147,-3.371888 0.73587,1.346688 c 2.76095,5.04879 12.24109,13.113914 19.95021,16.972608 2.06239,1.032297 9.07132,3.881901 11.09958,4.512902 0.7276,0.226362 2.16323,0.489374 3.1905,0.583944 2.39241,0.220253 2.51357,0.07904 2.79415,-3.246313 0.23482,-2.783097 0.23015,-2.752978 1.20871,-7.208863 0.3675,-1.673432 0.87747,-4.828588 1.13326,-7.011458 1.12029,-9.560454 0.26071,-16.15918 -2.60139,-19.976042 -0.38192,-0.509323 -0.65812,-1.083711 -0.61392,-1.276408 0.14169,-0.618324 -0.48156,-1.066674 -2.64014,-1.899108 -5.83793,-2.251344 -14.22343,-4.096401 -21.75475,-4.787305 -2.45583,-0.225291 -5.06526,-0.260292 -7.62434,-0.140043 z M 0.08392,-8.166003 c -0.42884,-0.0049 -0.7967,0.07617 -1.34204,0.240296 -3.36157,1.011685 -7.38226,4.861371 -9.5157,9.110555 -4.45881,8.880635 -5.08199,21.073698 -1.45211,28.412736 1.36327,2.756309 2.63589,4.464472 3.25975,4.375443 0.49029,-0.06997 0.58404,-0.318316 0.75034,-1.985408 0.28638,-2.871018 2.51342,-14.5776 3.27422,-17.211353 C -4.09556,11.847345 -1.85952,6.417338 0.5242,1.503691 1.9592,-1.454333 2.65792,-2.582725 3.6377,-3.523392 4.33254,-4.1905 4.91316,-4.952458 4.92806,-5.216829 4.94296,-5.481199 4.64932,-6.098584 4.27539,-6.588838 3.71047,-7.329475 3.29053,-7.549695 1.79182,-7.890567 1.00254,-8.070086 0.51275,-8.161056 0.08392,-8.166003 Z" /><path
         id="path89"
         style="fill:#28201f;fill-opacity:1"
         d="m 68.57793,-20.376627 c -5.28097,0.142017 -9.95598,1.007352 -13.79761,2.589506 l -1.90169,0.782898 -0.21343,1.503784 c -0.32913,2.320188 -0.18504,7.266807 0.30954,10.631909 0.75623,5.145267 2.53879,9.844057 5.3449,14.089063 0.64931,0.982265 1.21714,1.785937 1.26194,1.785937 0.0448,0 0.22483,-0.982265 0.39946,-2.182812 0.29999,-2.062314 2.60458,-11.50996 3.17138,-13.000757 0.4963,-1.30538 1.30166,-0.923475 4.54907,2.156974 7.30598,6.930334 11.7358,9.997404 17.68006,12.241114 3.82687,1.444484 3.4524,2.628933 -0.41444,1.311031 C 79.59713,9.701818 72.45515,4.763229 67.05554,-0.853788 c -2.03133,-2.113116 -2.66037,-2.45136 -3.08508,-1.65778 -0.36535,0.682651 0.31173,2.535493 1.68051,4.597653 1.13472,1.709528 6.05763,6.654111 8.75761,8.796362 5.26838,4.180103 9.42216,6.550214 16.27187,9.285221 4.20317,1.678274 5.48699,2.079883 6.92775,2.166793 l 1.76888,0.10697 0.13694,-0.888834 c 0.0754,-0.488823 0.20861,-1.662742 0.29611,-2.608627 0.0875,-0.945886 0.51414,-3.320034 0.94774,-5.275647 0.4336,-1.955614 0.96508,-5.289364 1.18133,-7.408333 0.21625,-2.11897 0.44541,-4.031071 0.50901,-4.249353 0.2239,-0.768289 -0.13367,-7.297897 -0.49971,-9.128125 -0.50409,-2.520502 -1.25699,-4.406732 -2.27015,-5.685958 -0.46664,-0.589179 -0.78418,-1.239503 -0.70538,-1.444873 0.29441,-0.767221 -6.22339,-2.968534 -12.96355,-4.378544 -6.26397,-1.310393 -12.15052,-1.891781 -17.43149,-1.749764 z M 0.20949,-6.695292 c -1.51559,0.01916 -2.92934,0.744894 -4.83226,2.34146 -0.77105,0.646924 -1.95597,1.813572 -2.63292,2.592606 -4.08726,4.703651 -6.68763,14.87134 -5.80274,22.689571 0.41774,3.690825 0.95831,5.727253 2.21226,8.334375 1.2939,2.690169 0.98471,3.403501 2.81999,-6.500378 C -6.56585,14.881855 -5.71094,12.0171 -2.96603,5.807821 -0.29796,-0.227658 1.42922,-3.410678 2.5649,-4.386389 3.12758,-4.869806 3.59802,-5.403107 3.61032,-5.571329 3.62262,-5.73955 3.07566,-6.066972 2.39489,-6.298933 1.60842,-6.56691 0.89839,-6.703992 0.20949,-6.695292 Z" /><path
         style="fill:#301f1d;fill-opacity:1"
         d="m 114.31336,-0.837333 c -0.30722,0.18208994 -1.96352,-0.4171334 -4.61862,-1.6709433 C 104.57762,-4.9247089 92.412311,-8.8710361 83.784638,-10.913296 74.382063,-13.138981 67.435093,-13.885171 56.317941,-13.86355 43.453207,-13.83853 33.875254,-12.641715 21.70369,-9.5383237 10.569397,-6.6994034 8.1842841,-5.9693982 2.4286908,-3.6388785 -2.748068,-1.5427393 -8.3744963,1.346467 -11.885212,3.7113872 c -2.027325,1.3656702 -2.945517,1.6075169 -3.320454,0.8745922 -0.631224,-1.2338999 0.804155,-10.9462443 2.428574,-16.4326804 0.997797,-3.370051 3.6566582,-9.605977 5.5702869,-13.064189 14.5563049,-26.305511 45.0764071,-39.322613 73.9735381,-31.55039 16.213035,4.360688 30.129255,14.843863 38.988177,29.370035 1.83551,3.009724 4.89619,9.688666 6.01191,13.11907 2.01761,6.2032992 3.27748,12.701613 2.54654,13.134842 z"
         id="path20" /><path
         style="fill:#403332;fill-opacity:1"
         d="M 112.24309,-7.0829959 C 107.9934,-26.972343 94.108835,-43.842276 75.209509,-52.079322 61.935131,-57.864799 46.397474,-58.86609 32.334962,-54.842279 c -10.120595,2.895883 -19.074391,8.074738 -26.7561638,15.475697 -5.29216138,5.098699 -9.3378443,10.63194 -12.7469372,17.43386 -3.747695,7.477485 -5.968442,15.0706647 -6.54974,22.39478798 l -0.23293,2.93496922 0.780276,-0.4958361 c 7.0226568,-4.4626068 15.9614769,-8.559711 23.850549,-10.9318945 1.675629,-0.5038471 5.266027,-1.4694776 7.978652,-2.1458446 16.579094,-4.133829 23.412583,-5.03384 37.998177,-5.004588 9.163734,0.01838 13.885796,0.339859 19.772363,1.346122 10.661446,1.822492 26.470752,6.6117677 34.809182,10.5451083 0.83374,0.3932889 1.58248,0.7163049 1.66388,0.7178141 0.19169,0.00355 -0.0544,-1.6804065 -0.65918,-4.5109123 z"
         id="path86" /><path
         style="fill:#a26944;fill-opacity:1"
         d="m 109.94669,24.874493 c -0.40196,1.438477 -2.37555,3.391815 -3.31439,3.280388 -1.07381,-0.127448 -1.01284,-0.647825 0.16287,-1.390022 1.4638,-0.92405 1.95188,-1.980692 1.98336,-4.293753 0.0448,-3.291407 -1.28213,-4.243512 -3.8795,-2.783627 -0.76247,0.428555 -1.53513,0.724317 -1.71704,0.65725 -1.14841,-0.423421 1.27118,-7.564951 3.37479,-9.960829 0.90164,-1.026917 2.05156,-1.75868 2.76364,-1.75868 0.6947,0 0.45615,0.624631 -0.54301,1.421861 -1.33005,1.061253 -2.85033,3.520095 -3.65359,5.909183 -0.37402,1.112422 -0.63815,2.064475 -0.58695,2.115673 0.0512,0.0512 0.41501,-0.02931 0.80847,-0.178898 1.69202,-0.643306 3.2906,-0.159599 4.16885,1.261437 0.66504,1.076053 0.89187,4.076084 0.4325,5.720017 z"
         id="path94" /><path
         style="fill:#8f7056;fill-opacity:1"
         d="m 136.43778,184.70542 c -0.35604,2.33319 -1.23806,5.09258 -2.15659,6.74688 -0.44439,0.80036 -2.2041,3.47927 -3.91046,5.95312 -3.65325,5.29643 -3.79848,5.55248 -3.59937,6.3458 0.0839,0.33438 -0.0821,3.15103 -0.36898,6.25921 -0.90166,9.76964 -1.48553,19.97305 -2.51869,44.01582 -0.3627,8.44021 -0.83736,18.50099 -1.05481,22.35729 -0.21745,3.8563 -0.75468,14.3338 -1.19386,23.28333 -0.43917,8.94954 -0.97318,18.89125 -1.18669,22.09271 -0.67284,10.08903 -1.43982,23.57698 -1.71461,30.15295 -0.25434,6.08637 -0.28932,6.36481 -0.87311,6.94859 -0.53321,0.53322 -3.06704,1.63468 -7.46872,3.24668 -8.62622,3.15913 -30.36786,2.18733 -50.27083,-2.24698 -11.10343,-2.4738 -19.47079,-5.04782 -24.92095,-7.66631 -5.21701,-2.50648 -11.19073,-6.79201 -12.04586,-8.64165 -1.30004,-2.812 -1.33202,-23.14222 -0.0699,-44.41515 2.1936,-36.97219 3.24079,-48.46033 6.22562,-68.29796 1.71153,-11.37512 3.18438,-19.18996 6.30128,-33.43433 0.72256,-3.30214 4.00699,-16.52115 5.88364,-23.68021 7.51167,-28.65555 13.06179,-46.24564 19.07578,-60.45729 0.86213,-2.03729 1.85996,-4.5376 2.2174,-5.55625 0.35744,-1.01864 2.03544,-4.61725 3.72888,-7.996902 l 3.079,-6.144822 -0.46952,-1.993774 c -0.37928,-1.61052 -0.44732,-2.7943 -0.35401,-6.158302 0.12703,-4.57975 0.44035,-5.765264 2.36728,-8.957395 3.11313,-5.157153 14.11072,-13.16076 20.6838,-15.052846 1.70484,-0.490742 3.77964,-0.610392 4.13648,-0.238544 0.35148,0.36625 1.77466,5.165058 2.53275,8.540145 0.79659,3.546494 0.69633,3.338351 5.57543,11.574996 5.28539,8.922542 6.83358,11.827994 8.45269,15.862989 2.43577,6.070165 3.33674,9.469605 5.42957,20.486335 1.65384,8.7058 2.56047,12.32717 4.19741,16.76571 1.43296,3.88547 3.56499,10.01731 6.63593,19.08533 2.90431,8.57599 4.64419,13.42111 5.24212,14.59801 1.60007,3.14939 2.99784,12.78292 2.41187,16.62282 z"
         id="path1" /><path
         style="fill:#f4e4d7;fill-opacity:1"
         d="m 134.22105,173.37722 c -0.24148,-0.84624 -1.33988,-4.06093 -2.44088,-7.14375 -1.10101,-3.08282 -3.54207,-10.1295 -5.42459,-15.6593 -1.88251,-5.52979 -3.84133,-11.0662 -4.35292,-12.30312 -0.51159,-1.23693 -1.35181,-3.49912 -1.86715,-5.02709 -2.19931,-6.5208 -8.26196,-20.87377 -11.73581,-27.78382 -2.42663,-4.82698 -3.00498,-6.347424 -2.41444,-6.347424 0.44458,0 1.08423,0.995094 3.14638,4.894794 2.38479,4.50982 3.79589,7.54556 6.14932,13.22916 0.90385,2.18282 1.70521,4.02828 1.78081,4.10104 0.36097,0.34743 -2.26371,-12.89985 -3.22395,-16.27187 -1.7555,-6.164742 -4.15935,-11.557272 -8.2561,-18.520832 -1.45539,-2.473854 -3.51626,-5.986198 -4.5797,-7.805208 -1.06344,-1.81901 -2.20678,-3.72401 -2.54076,-4.233333 -0.36302,-0.553619 -0.83248,-2.04331 -1.16733,-3.704167 -0.30805,-1.527968 -0.934,-4.058046 -1.39099,-5.622395 -0.82676,-2.830072 -0.83502,-2.844271 -1.65577,-2.844271 -3.00089,0 -10.50271,3.979946 -15.77582,8.369551 -5.05173,4.205322 -7.61445,7.829386 -8.20072,11.597036 -0.45326,2.912797 -0.16934,8.174629 0.53417,9.899719 0.50706,1.243387 0.53263,1.47784 0.20194,1.852083 -0.51573,0.583655 -5.67074,10.942967 -6.99423,14.055327 -1.81957,4.27896 -7.13395,18.29336 -8.80676,23.22403 -6.8957,20.32536 -17.37881,60.22939 -21.52814,81.94704 -3.8328,20.06095 -6.3532,40.69964 -7.94849,65.0875 -0.87801,13.4225 -1.72462,29.02824 -2.01669,37.17395 -0.32088,8.94943 -0.16978,22.25311 0.28999,25.53229 0.25781,1.83879 0.27276,1.86443 2.0822,3.57188 2.95827,2.79153 8.6628,6.13981 13.92811,8.1751 5.20167,2.0107 15.51567,4.75194 24.87083,6.61014 15.62854,3.10427 33.67344,4.07095 41.77155,2.23772 2.0335,-0.46033 4.09227,-1.27733 7.90397,-3.13659 l 2.57968,-1.25831 v -1.50265 c 0,-1.672 0.77244,-15.68451 1.5905,-28.85249 0.93588,-15.06458 1.03891,-16.89355 1.4532,-25.79688 0.22346,-4.80218 0.7582,-15.45828 1.18831,-23.6802 0.43011,-8.22193 0.96533,-19.35427 1.18938,-24.73854 0.96311,-23.14492 2.21089,-43.57026 2.90536,-47.55886 0.0697,-0.40018 0.0803,-0.7276 0.0236,-0.7276 -0.0567,0 -0.55335,0.62508 -1.1036,1.38906 -0.55025,0.76399 -3.75592,4.84188 -7.12369,9.06198 -3.36778,4.2201 -7.89065,9.99464 -10.05083,12.83229 -9.47842,12.4511 -14.96167,18.78936 -17.90422,20.69607 l -1.24627,0.80755 0.57807,1.00442 c 0.65141,1.13184 0.49423,1.52809 -0.43772,1.10347 -0.8016,-0.36523 -5.57952,-6.29854 -7.72142,-9.58859 -3.36164,-5.16364 -7.61188,-13.29284 -8.81931,-16.86824 -0.87957,-2.60453 -0.62597,-5.56917 0.36094,-4.21949 0.37205,0.5088 0.14364,0.94618 5.08438,-9.73623 3.53918,-7.65209 8.98256,-18.51052 11.81611,-23.57071 0.82189,-1.46775 1.49435,-2.82508 1.49435,-3.01628 0,-0.19121 -0.59531,-1.27569 -1.32292,-2.40996 -0.7276,-1.13427 -1.32291,-2.30617 -1.32291,-2.60422 0,-0.36755 0.63849,-1.01411 1.98437,-2.00943 1.09141,-0.80714 1.98438,-1.56703 1.98438,-1.68866 0,-0.12162 -0.41672,-1.13556 -0.92605,-2.2532 -0.62463,-1.37067 -0.92604,-2.42364 -0.92604,-3.23515 0,-1.8565 -1.35883,-5.49663 -4.27478,-11.4516 -3.55909,-7.26837 -4.80408,-10.11832 -5.88615,-13.47415 -1.55429,-4.82036 -2.05783,-8.22677 -1.49149,-10.08976 l 0.20109,-0.66146 0.29223,0.71991 c 0.16073,0.39595 0.48065,1.8247 0.71093,3.175 0.96262,5.64441 2.27033,9.19939 6.8888,18.72697 3.77286,7.78313 4.69429,10.15438 5.10063,13.12617 0.14149,1.03475 0.61457,2.69242 1.0513,3.6837 0.96227,2.18417 0.86889,2.49851 -1.17858,3.96727 -0.8058,0.57804 -1.62937,1.17004 -1.83017,1.31556 -0.29424,0.21324 -0.0812,0.69941 1.09802,2.50536 1.14318,1.7508 1.42674,2.38567 1.2968,2.9034 -0.0915,0.36445 -1.03762,2.2136 -2.10256,4.10923 -3.38575,6.02676 -8.81659,16.95056 -12.33428,24.80963 -0.69969,1.56322 -2.07046,4.44456 -3.04617,6.403 l -1.77401,3.56078 0.71,1.94669 c 0.84623,2.32021 2.83037,6.29093 5.32041,10.64733 2.30667,4.03559 3.92321,6.46516 6.53064,9.81522 l 2.07927,2.67148 0.98831,-0.81939 c 3.96261,-3.28537 8.82567,-8.93619 17.6687,-20.53085 2.16423,-2.83766 6.50333,-8.37407 9.64246,-12.30313 7.03225,-8.80185 8.75102,-11.07671 13.25073,-17.53794 3.68327,-5.28887 5.04209,-7.66956 5.68503,-9.96028 0.54168,-1.92995 0.35585,-11.8245 -0.26279,-13.99248 z"
         id="path103" /><path
         id="path107"
         style="fill:#8f7056;fill-opacity:1"
         d="m 95.50962,76.401445 c -1.15598,-0.02365 -4.01126,1.622258 -11.57604,6.649207 -8.20592,5.452993 -10.73424,7.45194 -10.3048,8.146789 0.29393,0.475577 0.83309,0.220339 2.90887,-1.37821 2.6595,-2.048075 11.31255,-7.815746 15.24661,-10.162687 1.64857,-0.983488 3.33381,-2.098081 3.74551,-2.476852 l 0.74879,-0.688847 -0.66249,-0.08165 c -0.0339,-0.0042 -0.0692,-0.007 -0.10645,-0.0078 z m 3.2706,20.90105 c -1.9677,0.07545 -5.84585,1.531104 -8.53643,3.285585 -5.49098,3.58059 -10.95812,12.43619 -12.80956,20.74964 -0.78486,3.52427 -0.594,7.38987 0.34934,7.0776 0.21865,-0.0724 0.38767,-1.03388 0.50332,-2.86545 0.26878,-4.25646 1.40025,-8.17609 3.65973,-12.67882 2.25985,-4.50345 5.7113,-8.85948 8.58862,-10.83913 2.55052,-1.7548 6.88082,-3.448366 8.81704,-3.448366 0.42063,0 0.83594,-0.07114 0.92294,-0.15813 0.30438,-0.304385 -0.13383,-0.906027 -0.77773,-1.067635 -0.19409,-0.04871 -0.43617,-0.06607 -0.71727,-0.05529 z m 7.28947,77.714635 c -2.92648,-0.1324 -5.89544,0.0294 -7.53184,0.54829 -1.62366,0.51488 -2.36759,1.09215 -1.9482,1.51154 0.0846,0.0846 1.11395,-0.0396 2.2872,-0.27596 3.81052,-0.76781 11.02044,-0.43847 13.83688,0.63201 0.76034,0.28899 1.65442,0.52548 1.98696,0.52555 1.01587,2.3e-4 0.21671,-1.01596 -1.35495,-1.7229 -1.4657,-0.65926 -4.34957,-1.08612 -7.27605,-1.21853 z m -10.8629,8.80929 c -0.21529,-0.005 -0.293,0.1623 -0.293,0.47904 0,0.67779 2.74513,2.86272 8.30182,6.60838 2.34629,1.58159 5.13306,3.65984 6.1929,4.6178 1.05985,0.95796 2.0421,1.7415 2.18281,1.7415 0.1407,0 0.2558,-0.28648 0.2558,-0.63665 0,-0.97358 -3.06276,-3.63612 -7.86567,-6.83731 -2.295,-1.52964 -5.1197,-3.50957 -6.27714,-4.40025 -1.39783,-1.07566 -2.1387,-1.56388 -2.49752,-1.57251 z m -30.21676,38.84672 c -0.36779,0 -0.50333,0.18842 -0.50333,0.69918 0,1.01038 0.93922,4.04044 2.24328,7.23832 1.19699,2.93531 10.5148,20.6217 12.83642,24.36492 2.34662,3.78354 5.26566,7.1205 6.22856,7.1205 0.75444,0 0.36921,-0.8624 -1.10329,-2.47169 -2.66377,-2.91123 -4.10812,-5.29999 -11.14712,-18.4304 -4.95767,-9.24794 -6.01055,-11.58266 -7.48688,-16.6026 -0.4445,-1.51144 -0.671,-1.91823 -1.06764,-1.91823 z m 17.35605,46.96354 c -0.51568,0 -0.52675,0.14539 -0.43615,5.68854 0.14369,8.78954 -0.38908,17.73695 -2.07171,34.79271 -1.11778,11.33025 -1.30738,14.53033 -1.58905,26.85521 -0.13802,6.03912 -0.32239,12.52802 -0.40979,14.41979 -0.1693,3.66394 0.0211,4.60728 0.77411,3.83646 0.45591,-0.46668 0.84116,-7.73153 1.08675,-20.50521 0.18346,-9.54224 0.40416,-13.03694 1.59267,-25.20983 0.83439,-8.54598 1.59391,-17.9707 1.79628,-22.28288 0.15267,-3.25328 0.12078,-14.15741 -0.0465,-15.875 -0.1449,-1.48757 -0.23889,-1.71979 -0.6966,-1.71979 z" /></g></g></svg>
